<?xml version="1.0" encoding="UTF-8" standalone="no"?>
<!-- Created with Inkscape (http://www.inkscape.org/) -->

<svg>
  <path
     style="fill:#000000"
     d="m 445.625,361.38017 c -10.5209,-4.87102 -15.64111,-13.82542 -15.59755,-27.27752 0.0341,-10.52635 2.81091,-17.05756 9.79329,-23.03421 6.10071,-5.22199 12.317,-7.31844 21.70026,-7.31844 12.33036,0 21.36015,4.85649 26.2814,14.13491 3.94784,7.44318 3.9605,23.01393 0.0248,30.43168 -3.37689,6.36446 -10.13014,12.10416 -16.47999,14.00662 -7.32522,2.19469 -19.94424,1.73204 -25.72215,-0.94304 z m 20.78445,-2.19432 c 2.2629,-2.72273 3.20253,-40.12961 1.17778,-46.88764 -1.50285,-5.01606 -4.5305,-6.77269 -9.51637,-5.52132 -5.41097,1.35807 -6.19586,4.78176 -6.19586,27.0264 0,17.69023 0.32026,21.16731 2.21631,24.0625 2.61025,3.98572 9.4899,4.72297 12.31814,1.32006 z m -80.10905,2.45967 c 0.0277,-0.56128 16.78851,-28.86427 37.2462,-62.89552 33.19195,-55.21461 37.5595,-61.91758 40.5746,-62.27053 1.85834,-0.21753 3.35611,0.0637 3.3284,0.625 -0.0277,0.56129 -16.78851,28.86428 -37.2462,62.89553 -33.19195,55.21461 -37.5595,61.91757 -40.5746,62.27053 -1.85834,0.21753 -3.35611,-0.0638 -3.3284,-0.625 z M 0,291.25 l 0,-3.75 20,0 20,0 0,-133.71875 0,-133.71875 -3.4375,0.59351 C 29.788524,21.825585 4.8656066,25 2.4570221,25 -1.3339528,25 -1.0158279,17.7728 2.8125,16.924207 4.359375,16.581325 24.497206,13.758109 47.563235,10.650393 77.993631,6.550466 93.685864,5 104.75074,5 L 120,5 l 0,141.25 0,141.25 15.625,0 15.625,0 0,3.75 0,3.75 -75.625,0 L 0,295 0,291.25 Z m 165.10736,-20.3125 0.10738,-24.0625 28.1108,-25.625 c 71.20916,-64.91226 89.27065,-95.27814 89.13085,-149.851237 -0.086,-33.562548 -5.949,-50.059403 -19.95639,-56.151557 -6.13294,-2.667363 -22.90513,-2.533302 -29.35794,0.23466 -12.98326,5.569225 -19.32332,19.549305 -16.12287,35.55156 0.72591,3.629543 1.1303,3.866902 7.1875,4.21875 l 6.41831,0.372824 1.61609,6.25 c 2.59376,10.031052 1.48441,21.775165 -2.64655,28.017466 -3.90247,5.897008 -12.68577,11.995134 -20.20032,14.024804 -6.82986,1.84473 -24.04491,0.78268 -28.94907,-1.78595 -9.66675,-5.06312 -16.04018,-14.8755 -17.78974,-27.388684 -4.21807,-30.168206 16.1387,-55.625095 51.79211,-64.7679321 15.57863,-3.9949265 38.91495,-5.5751533 57.73998,-3.9098798 45.14601,3.9936449 70.18579,19.0184209 79.15813,47.4977599 2.03077,6.445964 2.61521,11.540149 2.60285,22.687416 -0.0201,18.169683 -2.63439,27.17928 -11.63257,40.09022 -14.15915,20.31612 -35.07426,37.96373 -103.56591,87.38611 -20.28125,14.6346 -37.4375,27.12587 -38.125,27.75838 -0.76194,0.70101 21.44499,0.99779 56.875,0.7601 57.9088,-0.3885 58.15262,-0.40104 65.55111,-3.37146 13.72406,-5.5101 23.36448,-18.52013 28.01257,-37.80385 1.92637,-7.99201 2.28636,-8.55244 5.49882,-8.56067 4.14574,-0.0112 3.98516,-5.71105 1.56671,55.61617 -1.00313,25.4375 -1.83632,48.64062 -1.85155,51.5625 L 356.25,295 l -95.625,0 -95.625,0 0.10738,-24.0625 z m 215.6736,22.30114 c -19.28304,-7.17205 -23.81306,-35.17281 -8.16536,-50.47134 6.29115,-6.15076 13.06883,-8.19361 24.91012,-7.50814 8.60462,0.49812 10.83133,1.11955 15.32285,4.27632 16.94612,11.91017 15.6189,40.69922 -2.36208,51.23678 -7.13945,4.18399 -21.81209,5.40223 -29.70553,2.46638 z m 17.57834,-1.72071 C 401.47481,289.5369 402.5,282.97139 402.5,265 c 0,-23.4826 -1.30006,-27.43744 -9.03369,-27.48086 -2.33803,-0.0131 -4.10481,1.04285 -5.625,3.36197 -1.89679,2.89366 -2.21631,6.3704 -2.21631,24.11529 0,17.74354 0.31968,21.22236 2.21631,24.11887 2.22125,3.39225 7.18015,4.52503 10.51799,2.40265 z"
     id="path3447"
     inkscape:connector-curvature="0" />
</svg>
